<?xml version="1.0" encoding="UTF-8"?>
<svg id="Layer_1" data-name="Layer 1" xmlns="http://www.w3.org/2000/svg" viewBox="0 0 470.26 233.14">
  <defs>
    <style>
      .cls-1 {
        fill: #1dbbed;
      }
    </style>
  </defs>
  <path class="cls-1" d="M150.57,108.74c21.28-9.26,35.93-28.73,35.93-51.24C186.5,26.02,157.85.5,122.5.5c-.84,0-1.67.01-2.5.05v-.55H0v232h122.43c2.97.33,6,.5,9.07.5,39.76,0,72-28.21,72-63,0-29.01-22.42-53.45-52.93-60.76ZM54,44h57.6c12.37,0,22.4,10.03,22.4,22.4,0,11.6-8.82,21.14-20.11,22.29-.75.07-1.52.11-2.29.11s-1.54-.04-2.29-.11h-55.31v-44.69ZM123.02,188.12h-.12c-.76,0-1.5-.04-2.25-.11H54v-46.01h68.9c12.73,0,23.06,10.33,23.06,23.06s-10.26,22.99-22.94,23.06Z"/>
  <path class="cls-1" d="M448.73,178.34l-6.22-5.14c9.85-16.99,15.49-36.73,15.49-57.77,0-63.75-51.69-115.43-115.44-115.43s-115.43,51.68-115.43,115.43,51.68,115.44,115.43,115.44c24.75,0,49.35-8.41,68.16-21.67l5.17,4.27,23.79,19.67,30.58-37-21.53-17.8ZM407,143.85l-32.84-27.15-30.59,36.99,29.78,24.62c-9.19,4.37-20.48,8.16-31.24,8.16-39.05,0-70.71-31.66-70.71-70.7s31.66-70.7,70.71-70.7,70.7,31.66,70.7,70.7c0,9.98-2.07,19.47-5.81,28.08Z"/>
</svg>