<?xml version="1.0" encoding="utf-8"?>
<!-- Generator: Adobe Illustrator 28.2.0, SVG Export Plug-In . SVG Version: 6.00 Build 0)  -->
<svg version="1.1" id="Layer_1" xmlns="http://www.w3.org/2000/svg" xmlns:xlink="http://www.w3.org/1999/xlink" x="0px" y="0px"
	 viewBox="0 0 512 512" style="enable-background:new 0 0 512 512;" xml:space="preserve">
<style type="text/css">
	.st0{fill:#FFFFFF;}
</style>
<path class="st0" d="M245.4,380c3,2.7,6.8,4,10.6,4c3.8,0,7.6-1.3,10.6-4l144-128c6.6-5.9,7.2-16,1.3-22.6
	c-5.9-6.6-16.1-7.2-22.6-1.3L272,332.4V16c0-8.8-7.2-16-16-16s-16,7.2-16,16v316.4L122.6,228c-6.6-5.9-16.7-5.3-22.6,1.3
	c-5.9,6.6-5.2,16.7,1.3,22.6L245.4,380z M448,320h-48c-8.8,0-16,7.2-16,16c0,8.8,7.2,16,16,16h48c17.7,0,32,14.3,32,32v64
	c0,17.7-14.3,32-32,32H64c-17.7,0-32-14.3-32-32v-64c0-17.7,14.3-32,32-32h48c8.8,0,16-7.2,16-16c0-8.8-7.2-16-16-16H64
	c-35.3,0-64,28.7-64,64v64c0,35.3,28.7,64,64,64h384c35.3,0,64-28.7,64-64v-64C512,348.7,483.3,320,448,320z M440,416
	c0-13.2-10.8-24-24-24s-24,10.8-24,24s10.8,24,24,24S440,429.2,440,416z"/>
</svg>
