<?xml version="1.0" encoding="utf-8"?>
<!-- Generator: Adobe Illustrator 28.2.0, SVG Export Plug-In . SVG Version: 6.00 Build 0)  -->
<svg version="1.1" id="Layer_1" xmlns="http://www.w3.org/2000/svg" xmlns:xlink="http://www.w3.org/1999/xlink" x="0px" y="0px"
	 viewBox="0 0 512 512" style="enable-background:new 0 0 512 512;" xml:space="preserve">
<style type="text/css">
	.st0{fill:#F2F1F1;}
</style>
<path class="st0" d="M505,471L371,337c28.1-35.5,45-80.2,45-129C416,93.1,322.9,0,208,0S0,93.1,0,208s93.1,208,208,208
	c48.8,0,93.5-16.9,129-45l134,134c4.7,4.7,10.8,7,17,7s12.3-2.3,17-7C514.3,495.6,514.3,480.4,505,471z M48,208
	c0-88.2,71.8-160,160-160s160,71.8,160,160s-71.8,160-160,160S48,296.2,48,208z"/>
</svg>
